<svg xmlns="http://www.w3.org/2000/svg" viewBox="0 0 1024 1024" width="200" height="200">
  <g transform="translate(60, -20) scale(0.88)">
  <path d="M293.815 606.317c113.39 59.349 227.925 59.349 343.604 0 37.99 20.312 61.191 38.285 69.602 53.918l27.058 122.909-27.058 62.991 37.99 54.78-51.803 45.595-55.789-8.254-52.634 8.254-122.379-8.254H355.47l-103.698 8.572-67.986-45.913 38.63-47.667-16.059-124.629 37.855-107.425 49.603-14.877z" fill="#E9B572" p-id="2380"></path>
  <path d="M717.858 806.598h78.229l70.742-52.747 23.858-104.709-37.42-67.003-31.175-10.094-36.824 27.603 19.004 49.494-20.902 50.789-50.105 41.037zM327.484 133.779c-28.016-38.907-117.946-78.731-132.292-59.558-41.255 83.662 8.56 177.331 20.981 184.564" fill="#E9B572" p-id="2381"></path>
  <path d="M216.152 280.123c-3.645 0-7.338-0.935-10.715-2.901-16.026-9.333-32.857-46.533-40.558-76.796-8.649-33.994-13.731-85.121 11.179-135.638l0.872-1.768 1.181-1.578c4.682-6.257 13.992-13.639 31.82-13.518 36.393 0.333 107.188 34.955 134.865 73.391 6.885 9.562 4.715 22.894-4.846 29.778-9.561 6.885-22.892 4.716-29.778-4.846-9.352-12.987-30.1-28.512-54.146-40.517-21.737-10.851-37.532-14.566-44.882-15.106-14.682 34.842-11.587 70.169-6.109 94.316 6.691 29.495 19.062 51.462 23.625 56.546 8.809 6.342 11.524 18.461 5.95 28.035-3.965 6.805-11.113 10.602-18.458 10.602z" fill="#333333" p-id="2382"></path>
  <path d="M711.493 256.339c10.751-7.073 85.696-152.588 17.031-182.117-6.143-3.084-77.405 3.612-128.105 54.067" fill="#E9B572" p-id="2383"></path>
  <path d="M711.513 277.675c-6.939 0-13.742-3.38-17.842-9.61-5.929-9.012-4.142-20.861 3.756-27.769 3.725-4.82 15.57-25.532 25.442-52.638 11.392-31.28 15.477-57.991 11.503-75.213-2.424-10.506-7.37-15.042-11.978-17.522-11.971 0.296-66.532 8.289-106.928 48.488-8.35 8.31-21.858 8.278-30.169-0.073-8.312-8.352-8.278-21.859 0.073-30.17 30.037-29.892 65.299-44.992 89.59-52.396 15.436-4.704 27.872-6.775 35.588-7.685 15.794-1.86 22.389-0.346 26.825 1.72 16.832 7.366 37.372 24.017 40.68 61.552 2.925 33.19-8.932 71.127-19.393 97.108-5.259 13.062-11.456 26.207-17.449 37.014-9.087 16.385-14.018 21.064-17.993 23.68a21.232 21.232 0 0 1-11.705 3.514z" fill="#333333" p-id="2384"></path>
  <path d="M461.858 358.598m-256 0a256 256 0 1 0 512 0 256 256 0 1 0-512 0Z" fill="#E9B572" p-id="2385"></path>
  <path d="M461.858 635.931c-74.079 0-143.723-28.848-196.104-81.229s-81.229-122.026-81.229-196.104 28.848-143.723 81.229-196.104S387.78 81.265 461.858 81.265s143.722 28.848 196.104 81.229c52.381 52.382 81.229 122.026 81.229 196.104s-28.848 143.723-81.229 196.104c-52.382 52.381-122.025 81.229-196.104 81.229z m0-512c-62.682 0-121.612 24.409-165.935 68.732s-68.732 103.253-68.732 165.935S251.6 480.21 295.923 524.533c44.323 44.322 103.253 68.732 165.935 68.732 62.681 0 121.611-24.41 165.934-68.732 44.322-44.323 68.732-103.253 68.732-165.935s-24.41-121.612-68.732-165.935c-44.323-44.323-103.253-68.732-165.934-68.732z" fill="#333333" p-id="2386"></path>
  <path d="M461.858 934.598c-11.782 0-21.333-9.551-21.333-21.333V699.931c0-11.782 9.551-21.333 21.333-21.333s21.333 9.551 21.333 21.333v213.334c0 11.782-9.551 21.333-21.333 21.333z m94.259-44.512c-1.387 0-2.794-0.137-4.206-0.419-11.554-2.311-19.046-13.55-16.735-25.103l33.763-168.817c2.311-11.552 13.548-19.044 25.103-16.735 11.554 2.311 19.046 13.55 16.735 25.103l-33.763 168.817c-2.029 10.14-10.936 17.154-20.897 17.154z" fill="#333333" p-id="2387"></path>
  <path d="M461.858 934.598c-11.782 0-21.333-9.551-21.333-21.333V699.931c0-11.782 9.551-21.333 21.333-21.333s21.333 9.551 21.333 21.333v213.334c0 11.782-9.551 21.333-21.333 21.333z m-93.771-42.067c-9.961 0-18.868-7.013-20.896-17.154l-34.252-171.263c-2.311-11.553 5.182-22.792 16.735-25.103 11.554-2.309 22.792 5.183 25.103 16.735l34.252 171.263c2.311 11.553-5.182 22.792-16.735 25.103-1.412 0.283-2.82 0.419-4.207 0.419z" fill="#333333" p-id="2388"></path>
  <path d="M397.858 977.264c-47.851 0-85.333-28.111-85.333-63.999s37.483-64 85.333-64c11.782 0 21.333 9.551 21.333 21.333s-9.551 21.333-21.333 21.333c-26.045 0-42.667 12.636-42.667 21.334s16.621 21.333 42.667 21.333 42.667-12.635 42.667-21.333c0-11.782 9.551-21.333 21.333-21.333s21.333 9.551 21.333 21.333c0 35.887-37.483 63.999-85.333 63.999zM247.286 970.261c-47.851 0-85.333-28.112-85.333-64 0-14.737 6.578-29.026 18.522-40.236 10.216-9.588 23.933-16.693 39.666-20.546 11.443-2.81 22.993 4.202 25.796 15.646 2.802 11.444-4.203 22.993-15.646 25.796-16.068 3.936-25.67 12.924-25.67 19.341 0 8.698 16.621 21.334 42.667 21.334 10.537 0 20.791-2.232 28.872-6.284 10.532-5.28 23.352-1.025 28.633 9.506 5.282 10.532 1.025 23.352-9.507 28.633-14.106 7.071-30.703 10.81-48 10.81z" fill="#333333" p-id="2389"></path>
  <path d="M676.524 970.579c-10.516 0-20.771-1.376-30.481-4.092a102.12 102.12 0 0 1-8.443-2.758 94.198 94.198 0 0 1-10.609-4.75c-10.429-5.483-14.438-18.382-8.955-28.811 5.482-10.428 18.381-14.436 28.811-8.955a51.309 51.309 0 0 0 5.783 2.583 59.586 59.586 0 0 0 4.907 1.601c5.967 1.669 12.356 2.516 18.988 2.516 26.046 0 42.667-12.636 42.667-21.334 0-6.192-8.771-15.02-25.027-19.18-11.414-2.921-18.3-14.542-15.378-25.956 2.921-11.414 14.543-18.297 25.956-15.378 34.696 8.88 57.115 32.633 57.115 60.514-0.001 35.888-37.483 64-85.334 64z" fill="#333333" p-id="2390"></path>
  <path d="M525.857 977.264c-47.85 0-85.333-28.111-85.333-63.999 0-11.782 9.551-21.333 21.333-21.333s21.333 9.551 21.333 21.333c0 8.698 16.621 21.333 42.666 21.333 26.046 0 42.667-12.635 42.667-21.333s-16.621-21.334-42.667-21.334c-11.782 0-21.333-9.551-21.333-21.333s9.551-21.333 21.333-21.333c47.851 0 85.333 28.112 85.333 64s-37.481 63.999-85.332 63.999z" fill="#333333" p-id="2391"></path>
  <path d="M461.858 468.925c-11.396 0-22.111-4.438-30.17-12.497l-12.497-12.497c-4.72-4.718-7.32-10.996-7.32-17.673 0-6.676 2.6-12.953 7.32-17.673 4.721-4.72 10.997-7.32 17.673-7.32h49.987c6.676 0 12.952 2.6 17.673 7.32 4.72 4.718 7.32 10.996 7.32 17.673s-2.601 12.955-7.323 17.676l-12.494 12.494c-8.058 8.058-18.773 12.497-30.169 12.497z" fill="#333333" p-id="2392"></path>
  <path d="M419.377 531.802c-35.29 0-64-28.71-64-64 0-11.782 9.551-21.333 21.333-21.333s21.333 9.551 21.333 21.333c0 11.763 9.57 21.333 21.333 21.333s21.333-9.57 21.333-21.333c0-11.782 9.551-21.333 21.333-21.333s21.333 9.551 21.333 21.333c0.002 35.289-28.708 64-63.998 64z" fill="#333333" p-id="2393"></path>
  <path d="M504.71 531.802c-35.29 0-64-28.71-64-64 0-11.782 9.551-21.333 21.333-21.333s21.333 9.551 21.333 21.333c0 11.763 9.57 21.333 21.333 21.333 11.764 0 21.334-9.57 21.334-21.333 0-11.782 9.551-21.333 21.333-21.333s21.333 9.551 21.333 21.333c0.001 35.289-28.709 64-63.999 64z" fill="#333333" p-id="2394"></path>
  <path d="M355.191 337.264m-21.333 0a21.333 21.333 0 1 0 42.666 0 21.333 21.333 0 1 0-42.666 0Z" fill="#333333" p-id="2395"></path>
  <path d="M355.191 364.998c-15.292 0-27.733-12.441-27.733-27.733s12.441-27.733 27.733-27.733 27.733 12.441 27.733 27.733-12.441 27.733-27.733 27.733z m0-42.667c-8.234 0-14.933 6.699-14.933 14.933s6.699 14.934 14.933 14.934 14.934-6.699 14.934-14.934c0-8.234-6.7-14.933-14.934-14.933z" fill="#333333" p-id="2396"></path>
  <path d="M568.524 337.264m-21.333 0a21.333 21.333 0 1 0 42.666 0 21.333 21.333 0 1 0-42.666 0Z" fill="#333333" p-id="2397"></path>
  <path d="M568.524 364.998c-15.292 0-27.733-12.441-27.733-27.733s12.441-27.733 27.733-27.733 27.733 12.441 27.733 27.733c0.001 15.292-12.441 27.733-27.733 27.733z m0-42.667c-8.234 0-14.933 6.699-14.933 14.933s6.698 14.934 14.933 14.934 14.933-6.699 14.933-14.934c0-8.234-6.698-14.933-14.933-14.933z" fill="#333333" p-id="2398"></path>
  <path d="M736.04 837.09c-1.06 0.001-2.12-0.01-3.178-0.03-11.78-0.221-21.149-9.951-20.926-21.731 0.221-11.78 9.934-21.145 21.731-20.927 6.158 0.11 12.39-0.22 18.516-1 42.139-5.354 78.791-31.11 98.045-68.9 10.174-19.97 14.952-42.273 13.817-64.504a128.904 128.904 0 0 0-19.095-61.125c-6.204-10.018-3.11-23.167 6.906-29.37 10.02-6.205 23.167-3.109 29.37 6.907 15.168 24.496 23.961 52.648 25.43 81.411 1.516 29.68-4.85 59.436-18.411 86.051-25.67 50.38-74.523 84.72-130.682 91.856a170.854 170.854 0 0 1-21.523 1.363z" fill="#333333" p-id="2399"></path>
  <path d="M763.635 745.435c-7.923 0-15.531-4.43-19.216-12.04-5.135-10.603-0.702-23.364 9.903-28.498 8.794-4.259 15.666-10.876 19.874-19.134 6.676-13.102 6.18-28.493-1.329-41.169-6.004-10.136-2.653-23.223 7.485-29.226 10.137-6.004 23.222-2.653 29.226 7.484 14.998 25.322 15.982 56.08 2.634 82.28-8.468 16.62-22.056 29.818-39.295 38.166a21.244 21.244 0 0 1-9.282 2.137z" fill="#333333" p-id="2400"></path>
  <path d="M774.908 647.614c-11.161-15.356-14.93-34.72-10.34-53.127 8.538-34.243 43.346-55.154 77.582-46.615 17.044 4.248 31.253 14.978 40.007 30.21l-36.992 21.26c-2.92-5.079-7.656-8.655-13.336-10.07-11.42-2.848-23.016 4.124-25.863 15.537a21.307 21.307 0 0 0 3.455 17.72l-34.513 25.085z" fill="#333333" p-id="2401"></path>
  </g>
</svg>
